<svg width="512" height="512" viewBox="0 0 512 512" fill="none" xmlns="http://www.w3.org/2000/svg">
<path fill-rule="evenodd" clip-rule="evenodd" d="M256 512C397.385 512 512 397.385 512 256C512 114.615 397.385 0 256 0C114.615 0 0 114.615 0 256C0 397.385 114.615 512 256 512ZM256 419.556C165.671 419.556 92.4444 346.329 92.4444 256C92.4444 165.671 165.671 92.4445 256 92.4445C346.329 92.4445 419.556 165.671 419.556 256C419.556 346.329 346.329 419.556 256 419.556Z" fill="url(#paint0_linear)"/>
<path d="M17.9885 259.921V288H8.53014V216.274H34.9839C42.833 216.274 48.9744 218.278 53.408 222.284C57.8744 226.291 60.1076 231.595 60.1076 238.196C60.1076 245.158 57.9237 250.528 53.5557 254.305C49.2207 258.049 42.9972 259.921 34.8854 259.921H17.9885ZM17.9885 252.186H34.9839C40.0415 252.186 43.9168 251.004 46.6098 248.64C49.3028 246.242 50.6493 242.794 50.6493 238.294C50.6493 234.025 49.3028 230.61 46.6098 228.048C43.9168 225.486 40.2221 224.156 35.5258 224.058H17.9885V252.186ZM112.72 254.847H81.6352V280.266H117.744V288H72.1768V216.274H117.252V224.058H81.6352V247.112H112.72V254.847ZM155.824 258.985H138.976V288H129.469V216.274H153.213C161.292 216.274 167.499 218.113 171.834 221.792C176.202 225.47 178.386 230.823 178.386 237.851C178.386 242.318 177.171 246.209 174.741 249.526C172.343 252.843 168.993 255.323 164.691 256.965L181.539 287.409V288H171.391L155.824 258.985ZM138.976 251.25H153.509C158.205 251.25 161.932 250.035 164.691 247.605C167.483 245.175 168.878 241.923 168.878 237.851C168.878 233.418 167.548 230.018 164.888 227.654C162.261 225.289 158.451 224.091 153.459 224.058H138.976V251.25ZM244.447 265.241C243.56 272.827 240.752 278.689 236.023 282.827C231.326 286.933 225.07 288.985 217.254 288.985C208.781 288.985 201.983 285.947 196.859 279.872C191.769 273.796 189.224 265.668 189.224 255.487V248.59C189.224 241.923 190.406 236.061 192.771 231.004C195.168 225.946 198.551 222.071 202.919 219.378C207.287 216.652 212.344 215.289 218.091 215.289C225.711 215.289 231.819 217.424 236.417 221.693C241.015 225.93 243.691 231.808 244.447 239.329H234.939C234.118 233.615 232.328 229.477 229.569 226.915C226.844 224.353 223.018 223.072 218.091 223.072C212.049 223.072 207.303 225.306 203.855 229.772C200.439 234.239 198.731 240.593 198.731 248.837V255.783C198.731 263.566 200.357 269.757 203.608 274.354C206.86 278.952 211.408 281.251 217.254 281.251C222.509 281.251 226.532 280.069 229.323 277.704C232.147 275.307 234.019 271.152 234.939 265.241H244.447ZM312.527 288H303.019V254.847H266.861V288H257.403V216.274H266.861V247.112H303.019V216.274H312.527V288Z" fill="#31AEF9"/>
<defs>
<linearGradient id="paint0_linear" x1="512" y1="152.889" x2="117.5" y2="350.5" gradientUnits="userSpaceOnUse">
<stop stop-color="#1FA2FF"/>
<stop offset="1" stop-color="#A6FFCB"/>
</linearGradient>
</defs>
</svg>
