<svg width="512" height="512" viewBox="0 0 512 512" fill="none" xmlns="http://www.w3.org/2000/svg">
<path fill-rule="evenodd" clip-rule="evenodd" d="M232.854 477C358.223 477 459.854 375.369 459.854 250C459.854 124.631 358.223 23 232.854 23C107.486 23 5.85417 124.631 5.85417 250C5.85417 375.369 107.486 477 232.854 477ZM232.854 395.028C152.758 395.028 87.8264 330.097 87.8264 250C87.8264 169.903 152.758 104.972 232.854 104.972C312.951 104.972 377.882 169.903 377.882 250C377.882 330.097 312.951 395.028 232.854 395.028Z" fill="url(#paint0_linear)"/>
<path d="M211.754 261.323V289.403H202.295V217.677H228.749C236.598 217.677 242.739 219.68 247.173 223.687C251.639 227.694 253.873 232.998 253.873 239.599C253.873 246.561 251.689 251.931 247.321 255.707C242.986 259.451 236.762 261.323 228.65 261.323H211.754ZM211.754 253.589H228.749C233.807 253.589 237.682 252.407 240.375 250.042C243.068 247.645 244.414 244.197 244.414 239.697C244.414 235.428 243.068 232.012 240.375 229.451C237.682 226.889 233.987 225.559 229.291 225.46H211.754V253.589ZM306.485 256.249H275.4V281.669H311.509V289.403H265.942V217.677H311.017V225.46H275.4V248.515H306.485V256.249ZM349.589 260.387H332.741V289.403H323.234V217.677H346.978C355.057 217.677 361.264 219.516 365.599 223.194C369.967 226.873 372.151 232.226 372.151 239.254C372.151 243.72 370.936 247.612 368.506 250.929C366.108 254.246 362.758 256.726 358.456 258.368L375.304 288.812V289.403H365.156L349.589 260.387ZM332.741 252.653H347.274C351.97 252.653 355.698 251.438 358.456 249.008C361.248 246.578 362.644 243.326 362.644 239.254C362.644 234.82 361.313 231.421 358.653 229.057C356.026 226.692 352.216 225.493 347.224 225.46H332.741V252.653ZM438.212 266.644C437.325 274.23 434.517 280.092 429.788 284.23C425.092 288.335 418.835 290.388 411.019 290.388C402.546 290.388 395.748 287.35 390.624 281.275C385.534 275.199 382.989 267.071 382.989 256.89V249.993C382.989 243.326 384.171 237.464 386.536 232.406C388.933 227.349 392.316 223.474 396.684 220.781C401.052 218.055 406.109 216.692 411.856 216.692C419.476 216.692 425.584 218.827 430.182 223.096C434.78 227.332 437.456 233.211 438.212 240.732H428.704C427.883 235.017 426.093 230.879 423.335 228.318C420.609 225.756 416.783 224.475 411.856 224.475C405.814 224.475 401.068 226.708 397.62 231.175C394.204 235.641 392.496 241.996 392.496 250.239V257.185C392.496 264.969 394.122 271.159 397.373 275.757C400.625 280.355 405.173 282.654 411.019 282.654C416.274 282.654 420.297 281.472 423.088 279.107C425.913 276.71 427.785 272.555 428.704 266.644H438.212ZM506.292 289.403H496.784V256.249H460.626V289.403H451.168V217.677H460.626V248.515H496.784V217.677H506.292V289.403Z" fill="#B7EDDB"/>
<defs>
<linearGradient id="paint0_linear" x1="459.854" y1="158.569" x2="5.85418" y2="355.093" gradientUnits="userSpaceOnUse">
<stop stop-color="#1FA2FF"/>
<stop offset="1" stop-color="#A6FFCB" stop-opacity="0.5"/>
</linearGradient>
</defs>
</svg>
