<svg id="图层_1" data-name="图层 1" xmlns="http://www.w3.org/2000/svg" xmlns:xlink="http://www.w3.org/1999/xlink" viewBox="0 0 911.73 250"><defs><style>.cls-1{fill:none;}.cls-2{font-size:166px;font-family:STXingkai;}.cls-2,.cls-4,.cls-5,.cls-6,.cls-7,.cls-8{fill:#fff;}.cls-3{clip-path:url(#clip-path);}.cls-4{fill-rule:evenodd;}.cls-5{font-size:61.9px;}.cls-5,.cls-6{font-family:HYLiangPinXianJ;}.cls-6{font-size:66.93px;}.cls-8{stroke:#1d2974;stroke-linecap:round;stroke-linejoin:round;stroke-width:0.25px;}</style><clipPath id="clip-path"><rect class="cls-1" x="-238.64" y="-387.04" width="712.79" height="1008.09"/></clipPath></defs><title>22222</title><text class="cls-2" transform="translate(283.88 180.24)">栖枝perch</text><g class="cls-3"><path class="cls-4" d="M129.32,69.85l9-.62C150,54.41,178.21,67.44,164.86,92c15.3,24.4,1.66,47.5-22.45,70.15-8.94,5.49-6.08,22.13-6.22,35.93-.06,5.4.27,20.05-6.13,21-2.2.31-4.92-1-7.9-3.46-5.12-4.23-3.49-6.82-1.8-13,3.64-13.27,11.49-22.77,4.17-43.36l-9.65,4.41c2.47-35.18,11.2-63.27,26.37-73-5.68-3.71-1.77-11.21-4.88-14.57a28.59,28.59,0,0,0-7.05-6.13"/><path class="cls-4" d="M86.59,83.82q10.55,2.45,10,10.46c-1.08,3.21-3.38,3.81-6.75,1.69-3.75-2.64-4.5-6.86-3.21-12.15"/><path class="cls-4" d="M96.88,105a23.36,23.36,0,0,0,4.22-1.27,22.12,22.12,0,0,1-4.29,1,19.85,19.85,0,0,1-2.67.21c.24-.27.6-1,.94-1.37,2-2.07,6.42-4.89,13.08-1,0,0-5.75,7.62-12.12,4a20,20,0,0,1-1.92-1.21c.93-.09,1.84-.22,2.76-.4"/><path class="cls-4" d="M90.79,113.19a16.18,16.18,0,0,1-2.17-2.13,15.18,15.18,0,0,0,2.3,2,14.84,14.84,0,0,0,1.55,1c-.06-.24,0-.81-.13-1.14-.51-1.88-2.33-5-7.65-4.79,0,0,1,6.49,6.09,6.34a10.66,10.66,0,0,0,1.55-.12,16.9,16.9,0,0,1-1.54-1.13"/><path class="cls-4" d="M88.81,144.85q5.88-12,15.38-9.1c3.56,2.2,3.65,5.14.16,8.61-4.22,3.78-9.52,3.52-15.54.49"/><path class="cls-4" d="M41.92,129.55q-.73-11.51,7.61-13.37c3.61.12,4.93,2.28,3.8,6.37-1.55,4.63-5.62,6.69-11.41,7"/><path class="cls-4" d="M31.93,132.42Q30,141.2,23.36,140.8c-2.67-.86-3.19-2.76-1.47-5.58,2.14-3.13,5.63-3.81,10-2.8"/><path class="cls-4" d="M71.8,53.78q7.65,4.3,6.53,9.89C78,65.55,77,67.5,74.74,68.11c-1.57.43-3.16-.29-4.74-2.17-2.62-3.52-1.64-7.63,1.8-12.16"/><path class="cls-4" d="M26.17,82.35c5.36-4.21,11.5-6,18.88-3.89,1.89,2.23,1.45,10.24-1.19,14.06C38.25,98.94,36,84.61,26.17,82.35"/><path class="cls-4" d="M48.59,78.78q7.48-5.23,1.13-12.37c-3.94,3.49-4.79,7.53-1.13,12.37"/><path class="cls-4" d="M43.4,109q3.74-7,9.34-6.76c1.89.08,3.88.65,4.63,2.47.53,1.28-.07,2.71-1.82,4.28-3.31,2.65-7.45,2.34-12.15,0"/><path class="cls-4" d="M73.55,75.78q6.93,1.45,8.93-5.44c-4.14-.41-7.28,1.11-8.93,5.44"/><path class="cls-4" d="M73.23,83.05q5.63,1.19,7.26-4.41c-3.37-.34-5.91.89-7.26,4.41"/><path class="cls-4" d="M71.41,87.9q-7.95.39-9-7.62c4.67.27,7.89,2.51,9,7.62"/><path class="cls-4" d="M51.58,89q6.9-2.48,4.92-9.65c-3.88,1.89-5.82,4.93-4.92,9.65"/><path class="cls-4" d="M62.16,103.2A19.06,19.06,0,0,1,60,100.38,18.31,18.31,0,0,0,62.34,103,15.85,15.85,0,0,0,64,104.43c0-.28.09-.94,0-1.34-.29-2.26-1.89-6.21-8.1-6.77,0,0,.18,7.69,6,8.33a16.61,16.61,0,0,0,1.83.11q-.86-.75-1.62-1.56"/><path class="cls-4" d="M54,93.64a15.39,15.39,0,0,1-2.77,1,15.62,15.62,0,0,0,2.69-1.21,14.1,14.1,0,0,0,1.52-1c-.24,0-.73-.3-1.06-.36-1.88-.32-5.41,0-7.38,4.77,0,0,6.15,1.75,8.1-2.75a12.37,12.37,0,0,0,.54-1.42,17.41,17.41,0,0,1-1.64.9"/><path class="cls-4" d="M120,143.24l-8.62-6.51-15.11-10-2.72-3.48-2.57-2.72-2.88-1.66L77,108a3.73,3.73,0,0,1-3.94-1.66c-1.36-2.27-1.81-2.72-2.27-3.48s-1.66-3.18-1.66-3.18l-3.48-1.51L53.72,90l-7.63-4.36-3.72.12,1.21,2.42s3.81,1.58,4.54.31,6.25,3.7,6.25,3.7,5,2.4,4.64,3.56,5.3,3.93,5.3,3.93l3.17,2.57.76,2.88,1.51,4.39,7.11.9,10.9,10.75,3.78,3,3.33,3.94,1.66,1.21,2.58,3.17,4.33,3.08,1,3.73s3.9,4.7,2.72,3.94-1.06,3.32-1.06,3.32l1.67,2.73,1.21-3a20,20,0,0,1,.76-2.72c.45-1.21,2.72-.61,2.72-.61l2.42,1.21,4.39,5s4.54.15,3.93-1.52-3.2-4.35-3.2-4.35"/><polygon class="cls-4" points="92.82 95.91 92.93 99.93 92.22 121.87 92.15 123.08 94.87 124.97 93.83 117.83 94.12 105.38 93.49 93.34 92.82 95.91"/><path class="cls-4" d="M73.35,66.2l-.47,4-.69,2.79-.12,8-.23,3.25L71,86.46l-.94,5.19-1.16,10.69,1.4,2.1L71,95.72s.82-4.07.93-4.65,1-4.53,1-4.53l.6-3.42.21-11.92,1.4-5.81Z"/><path class="cls-4" d="M56.48,105.26c.36.08,12.92-1.49,12.22-1.31s1.09,2.26,1.09,2.26l-14.26.14Z"/><path class="cls-4" d="M75.48,220.12c10.63-17.26,30.63-9.08,33.76,4.69-10.76-4.24-21.66,7.73-33.5-1.47,4.15-3.3,11.62-5.05,21.84-5.49-4.75-4.27-12.7-2.39-22.1,2.27"/><path class="cls-4" d="M44.21,197.94C60.58,210.12,76.23,195,74,181c-8.48,8-23.13.84-30.77,13.84,5.11,1.55,12.74.4,22.47-3-2.86,5.76-11,7-21.52,6.1"/><path class="cls-4" d="M162.74,158.36c-4.36-5-10.06-4.13-13,2-1.82,5,.77,11.34,5.37,9.37-2.73-2.32-4.17-3.51-2.81-7.43a7.07,7.07,0,0,1,2.49-3.67c1.69-1,4.47-.91,7.9-.27"/><path class="cls-4" d="M213,74.16h6.29c-6.84-15.7-17.15-30.07-30.45-40.74C124.17-18.47,45,12.78,17.2,70.72c-31.5,76.07,12.51,135.13,61,153.74-45.79-25.58-65.49-59.33-67.7-96.94C8.48,92.65,19.77,62.36,46,38.65a99.13,99.13,0,0,1,43.8-23C143,2.83,191.28,28.35,213,74.16"/><path class="cls-4" d="M190.24,176.1a22,22,0,0,1-16.7-3.47c-.78-.53-15.35-11.72-16.1-12.35a5.4,5.4,0,0,0-2.41,3.9c.72.75,13.46,10.35,14.24,11,5.7,4.7,13,6.57,21,5.36Z"/><rect class="cls-1" x="-238.64" y="-387.04" width="712.79" height="1008.09"/><text class="cls-5" transform="translate(179.03 148.65) scale(1 1.32)">栖</text><text class="cls-6" transform="translate(196.57 228.61) scale(1 1.36)">枝</text><path class="cls-4" d="M162.23,216.8a2.29,2.29,0,0,0-1.57-.13,2.05,2.05,0,0,0-.68.37c.36-2.23-1.32-4.45-3.13-4.15-1.32.22-1.9,1.54-1.91,3.14a2,2,0,0,0-1.27-.53,2.12,2.12,0,0,0-2,1.64,1.61,1.61,0,0,0-1.8.29c-.8.56-1.69,0-2.29-.41a3.93,3.93,0,0,0-5.78,1.34,8.49,8.49,0,0,1-2.17,2.72,6.25,6.25,0,0,0,2.22-2.07,5.24,5.24,0,0,1,1.49-1.48,3.68,3.68,0,0,1,4.63.52,1.73,1.73,0,0,0,2.26,0,1.41,1.41,0,0,1,1.26-.1,2.48,2.48,0,0,0,0,.27c-.09,1.23.58,2.5,1.7,2.5.93,0,1.25-1.46.93-2.18-.12-.28-.52-.84-.67-.59-.24.41,0,.55.13.76.23.42-.15,1.23-.68,1-1.11-.39-1.05-2.31-.08-3.13a1.64,1.64,0,0,1,2.33.66,5,5,0,0,1-.73,5c-2.14,2.13-4.5.1-5.82-1.24s-2.31-2.6-3.83-2.81c-1-.15-2,.84-2.89,1.9a4,4,0,0,1-2.81,1.73c.85.56,2.41-.72,3.28-1.8,1.55-1.91,3.46-1.18,4.67.16.8.9,2.72,3.74,5.21,3.79,1.66,0,3.43-1.35,3.83-3.81a6.17,6.17,0,0,0,0-1.87,1.36,1.36,0,0,0,.9.11c.92-.2,1.09-1.69.69-2.35-.15-.25-.61-.72-.73-.44-.19.46.08.53.21.72.27.38,0,1.25-.55,1.17-1.15-.16-1.31-2.31-.43-3.29a1.74,1.74,0,0,1,2.58.3,4.19,4.19,0,0,1,.58,3.41c-.67,1.09-1.13,2.63-1.79,3.84-2.89,5.32-6.61,5-9.29,1.69-1.44-1.76-3.42-5.24-5.34-3-1.41,1.68-3.1,2.63-4.83,1.66a2.29,2.29,0,0,0,1.7.74,4,4,0,0,0,2.7-1.24c1.89-2.43,3.23-.58,4.25.92,3.92,5.8,8.52,4.47,10.77.71a34.37,34.37,0,0,0,2-4.29c.52-1.22,1.74-1.94,2.79-1.37Zm0,5.68v.72a1.43,1.43,0,0,1-.41,0,2.58,2.58,0,0,1-1.92,1.22c-.7.1-.56-.32-1.38.91-1,1-1.05,1.63-5,1.54,3.3-.42,3.73-1.16,4.57-2.12,1.05-1.18.73-1.28,1.42-1a1.79,1.79,0,0,0,1.66-.73.05.05,0,0,1,0,0c-1.44-.84-.89-3.13.12-3.37.21,0,.58,0,.59.34s-.31.5-.51.5c-.43,0-.55,1-.29,1.42.38.55.78.72,1.15.65"/><rect class="cls-1" x="-238.64" y="-387.04" width="712.79" height="1008.09"/><path class="cls-7" d="M163.59,218.87c0-2.67.87-4.25,2.1-4.25s2.11,1.58,2.11,4.25-.87,4.32-2.11,4.32S163.59,221.58,163.59,218.87Zm3.48,0c0-2.08-.55-3.31-1.38-3.31s-1.38,1.23-1.38,3.31.56,3.44,1.38,3.44S167.07,221.06,167.07,218.87Zm-1.75,4.18.74-.08c.16.82.62,1.22,1.23,1.22a.86.86,0,0,0,.41-.11l.12.84a1.22,1.22,0,0,1-.62.18C166.21,225.1,165.59,224.21,165.32,223.05Z"/><path class="cls-7" d="M170.66,222.15H172v-6.48h-1.36v-.9h3.42v.9h-1.36v6.48h1.36V223h-3.42Z"/><path class="cls-7" d="M177.1,222.4l3-6.74h-2.78v-.9H181v.64l-3,6.75h3.09V223h-4Z"/><path class="cls-7" d="M183.89,214.77h.71v3.46h2.27v-3.46h.71V223h-.71v-3.88H184.6V223h-.71Z"/><path class="cls-7" d="M190.71,222.15h1.36v-6.48h-1.36v-.9h3.42v.9h-1.36v6.48h1.36V223h-3.42Z"/><line class="cls-8" x1="162.23" y1="214.51" x2="162.23" y2="224.41"/><line class="cls-8" x1="169.15" y1="214.51" x2="169.15" y2="224.41"/><line class="cls-8" x1="175.66" y1="214.51" x2="175.66" y2="224.41"/><line class="cls-8" x1="182.47" y1="214.51" x2="182.47" y2="224.41"/><line class="cls-8" x1="189.15" y1="214.51" x2="189.15" y2="224.41"/><rect class="cls-1" x="-238.64" y="-387.04" width="712.79" height="1008.09"/></g></svg>