<?xml version="1.0" encoding="utf-8"?>
<!-- Generator: Adobe Illustrator 24.0.1, SVG Export Plug-In . SVG Version: 6.00 Build 0)  -->
<svg version="1.1" id="图层_1" xmlns="http://www.w3.org/2000/svg" xmlns:xlink="http://www.w3.org/1999/xlink" x="0px" y="0px"
	 viewBox="0 0 911.7 250" style="enable-background:new 0 0 911.7 250;" xml:space="preserve">
<style type="text/css">
	.st0{fill:#EF0000;stroke:#000000;stroke-miterlimit:10;}
	.st1{fill:none;}
	.st2{fill:#FFFFFF;}
	.st3{font-family:'STXingkai';}
	.st4{font-size:152px;}
	.st5{clip-path:url(#SVGID_2_);fill-rule:evenodd;clip-rule:evenodd;fill:#FFFFFF;}
	.st6{clip-path:url(#SVGID_2_);fill:none;}
	.st7{clip-path:url(#SVGID_2_);}
	.st8{font-family:'HYLiangPinXianJ';}
	.st9{font-size:61.0259px;}
	.st10{font-size:65.9812px;}
	
		.st11{clip-path:url(#SVGID_2_);fill:#FFFFFF;stroke:#1D2974;stroke-width:0.25;stroke-linecap:round;stroke-linejoin:round;stroke-miterlimit:10;}
</style>
<rect x="-257" y="-141.1" class="st0" width="1257" height="470"/>
<title>logo_1</title>
<rect x="325" y="46.9" class="st1" width="656" height="183"/>
<text transform="matrix(1 0 0 1 325 168.4905)" class="st2 st3 st4">栖枝perch</text>
<g>
	<g>
		<defs>
			<rect id="SVGID_1_" x="-188.3" y="-379.9" width="702.7" height="993.8"/>
		</defs>
		<clipPath id="SVGID_2_">
			<use xlink:href="#SVGID_1_"  style="overflow:visible;"/>
		</clipPath>
		<path class="st5" d="M174.4,70.5l8.9-0.6c11.5-14.6,39.3-1.8,26.1,22.4c15.1,24,1.6,46.8-22.1,69.1c-8.8,5.4-6,21.8-6.1,35.4
			c-0.1,5.3,0.3,19.8-6,20.7c-2.2,0.3-4.9-1-7.8-3.4c-5-4.2-3.4-6.7-1.8-12.8c3.6-13.1,11.3-22.4,4.1-42.7l-9.5,4.3
			c2.4-34.7,11-62.4,26-72c-5.6-3.7-1.7-11.1-4.8-14.4C179.3,74.3,177.2,72,174.4,70.5"/>
		<path class="st5" d="M132.3,84.3c6.9,1.6,10.2,5,9.8,10.3c-1.1,3.2-3.3,3.8-6.7,1.7C131.7,93.7,131,89.5,132.3,84.3"/>
		<path class="st5" d="M142.4,105.1c1.4-0.3,2.8-0.7,4.2-1.2c-1.4,0.4-2.8,0.8-4.2,1c-1.1,0.1-1.8,0.2-2.6,0.2
			c0.2-0.3,0.6-1,0.9-1.4c1.9-2,6.3-4.8,12.9-0.9c0,0-5.7,7.5-12,4c-1-0.6-1.6-1-1.9-1.2C140.6,105.5,141.5,105.3,142.4,105.1"/>
		<path class="st5" d="M136.4,113.2c-0.8-0.6-1.5-1.3-2.1-2.1c0.7,0.7,1.4,1.4,2.3,2c0.6,0.4,1,0.7,1.5,1c-0.1-0.2,0-0.8-0.1-1.1
			c-0.5-1.9-2.3-5-7.5-4.7c0,0,1,6.4,6,6.2c0.8,0,1.3-0.1,1.5-0.1C137.4,114,136.9,113.6,136.4,113.2"/>
		<path class="st5" d="M134.5,144.5c3.9-7.9,8.9-10.9,15.2-9c3.5,2.2,3.6,5.1,0.2,8.5C145.6,147.7,140.4,147.4,134.5,144.5"/>
		<path class="st5" d="M88.2,129.4c-0.5-7.6,2-12,7.5-13.2c3.6,0.1,4.9,2.2,3.7,6.3C98,127,94,129.1,88.2,129.4"/>
		<path class="st5" d="M78.4,132.2c-1.3,5.8-4.1,8.5-8.4,8.3c-2.6-0.9-3.2-2.7-1.5-5.5C70.6,131.9,74,131.2,78.4,132.2"/>
		<path class="st5" d="M117.7,54.7c5,2.8,7.2,6.1,6.4,9.8c-0.4,1.9-1.3,3.8-3.5,4.4c-1.5,0.4-3.1-0.3-4.7-2.1
			C113.3,63.2,114.3,59.1,117.7,54.7"/>
		<path class="st5" d="M72.7,82.8C78,78.7,84,76.9,91.3,79c1.9,2.2,1.4,10.1-1.2,13.9C84.6,99.2,82.4,85.1,72.7,82.8"/>
		<path class="st5" d="M94.8,79.3c4.9-3.4,5.3-7.5,1.1-12.2C92,70.6,91.2,74.6,94.8,79.3"/>
		<path class="st5" d="M89.7,109.1c2.5-4.6,5.5-6.8,9.2-6.7c1.9,0.1,3.8,0.6,4.6,2.4c0.5,1.3-0.1,2.7-1.8,4.2
			C98.4,111.7,94.3,111.4,89.7,109.1"/>
		<path class="st5" d="M119.4,76.4c4.6,1,7.5-0.8,8.8-5.4C124.1,70.6,121,72.1,119.4,76.4"/>
		<path class="st5" d="M119.1,83.5c3.7,0.8,6.1-0.7,7.2-4.4C122.9,78.9,120.4,80.1,119.1,83.5"/>
		<path class="st5" d="M117.3,88.3c-5.2,0.3-8.2-2.2-8.8-7.5C113.1,81.1,116.3,83.3,117.3,88.3"/>
		<path class="st5" d="M97.8,89.4c4.5-1.6,6.1-4.8,4.8-9.5C98.8,81.8,96.9,84.8,97.8,89.4"/>
		<path class="st5" d="M108.2,103.4c-0.8-0.9-1.5-1.8-2.1-2.8c0.7,1,1.5,1.9,2.3,2.6c0.7,0.6,1.1,1,1.6,1.4c0-0.3,0.1-0.9,0-1.3
			c-0.3-2.2-1.9-6.1-8-6.7c0,0,0.2,7.6,6,8.2c0.9,0.1,1.5,0.1,1.8,0.1C109.2,104.4,108.7,103.9,108.2,103.4"/>
		<path class="st5" d="M100.1,94c-0.9,0.4-1.8,0.8-2.7,1c0.9-0.3,1.8-0.7,2.7-1.2c0.6-0.4,1-0.6,1.5-1c-0.2,0-0.7-0.3-1-0.3
			c-1.8-0.3-5.3,0-7.3,4.7c0,0,6.1,1.7,8-2.7c0.3-0.7,0.5-1.1,0.5-1.4C101.2,93.4,100.7,93.7,100.1,94"/>
		<path class="st5" d="M165.2,142.9l-8.5-6.4l-14.9-9.9l-2.7-3.4l-2.5-2.7l-2.8-1.6l-10.9-10.7c0,0-2.5,0.6-3.9-1.6
			c-1.3-2.2-1.8-2.7-2.2-3.4c-0.4-0.7-1.6-3.1-1.6-3.1l-3.4-1.5l-11.8-8.1L92.4,86l-3.7,0.1l1.2,2.4c0,0,3.8,1.6,4.5,0.3
			c0.7-1.3,6.2,3.7,6.2,3.7s4.9,2.4,4.6,3.5c-0.4,1.1,5.2,3.9,5.2,3.9l3.1,2.5l0.7,2.8l1.5,4.3l7,0.9l10.7,10.6l3.7,3l3.3,3.9
			l1.6,1.2l2.5,3.1l4.3,3l0.9,3.7c0,0,3.8,4.6,2.7,3.9c-1.2-0.8-1,3.3-1,3.3l1.6,2.7l1.2-3c0,0,0.3-1.5,0.7-2.7
			c0.4-1.2,2.7-0.6,2.7-0.6l2.4,1.2l4.3,4.9c0,0,4.5,0.1,3.9-1.5C167.7,145.5,165.2,142.9,165.2,142.9"/>
		<polygon class="st5" points="138.4,96.2 138.5,100.2 137.8,121.8 137.8,123 140.4,124.9 139.4,117.8 139.7,105.5 139.1,93.7 		"/>
		<path class="st5" d="M119.2,66.9l-0.5,3.9l-0.7,2.7l-0.1,7.9l-0.2,3.2l-0.8,2.2L116,92l-1.1,10.5l1.4,2.1l0.7-8.6
			c0,0,0.8-4,0.9-4.6c0.1-0.6,1-4.5,1-4.5l0.6-3.4l0.2-11.8l1.4-5.7L119.2,66.9z"/>
		<path class="st5" d="M102.6,105.4c0.4,0.1,12.7-1.5,12-1.3c-0.7,0.2,1.1,2.2,1.1,2.2l-14.1,0.1L102.6,105.4z"/>
		<path class="st5" d="M121.3,218.7c10.5-17,30.2-9,33.3,4.6c-10.6-4.2-21.4,7.6-33-1.5c4.1-3.3,11.5-5,21.5-5.4
			C138.4,212.2,130.6,214.1,121.3,218.7"/>
		<path class="st5" d="M90.5,196.8c16.1,12,31.6-2.9,29.4-16.7c-8.4,7.9-22.8,0.8-30.3,13.7c5,1.5,12.6,0.4,22.1-3
			C108.9,196.5,100.9,197.6,90.5,196.8"/>
		<path class="st5" d="M207.3,157.8c-4.3-5-9.9-4.1-12.8,2c-1.8,4.9,0.8,11.2,5.3,9.2c-2.7-2.3-4.1-3.5-2.8-7.3
			c0.6-1.6,1.5-3.1,2.5-3.6C201.2,157.1,204,157.1,207.3,157.8"/>
		<path class="st5" d="M256.8,74.8h6.2c-6.7-15.5-16.9-29.6-30-40.2C169.3-16.5,91.2,14.3,63.9,71.4c-31.1,75,12.3,133.2,60.2,151.6
			c-45.1-25.2-64.6-58.5-66.7-95.6c-2-34.4,9.1-64.2,35-87.6c12.7-11.4,27.3-18.9,43.2-22.7C187.9,4.4,235.5,29.6,256.8,74.8"/>
		<path class="st5" d="M234.5,175.3c-6.3,1.1-11.7-0.2-16.5-3.4c-0.8-0.5-15.1-11.5-15.9-12.2c-1.3,0.8-2.1,2.1-2.4,3.8
			c0.7,0.7,13.3,10.2,14,10.8c5.6,4.6,12.8,6.5,20.7,5.3V175.3z"/>
		<rect x="-188.3" y="-379.9" class="st6" width="702.7" height="993.8"/>
		<g class="st7">
			<text transform="matrix(1 0 0 1.3191 223.4053 148.2052)" class="st2 st8 st9">栖</text>
		</g>
		<g class="st7">
			<text transform="matrix(1 0 0 1.3601 240.6963 227.0284)" class="st2 st8 st10">枝</text>
		</g>
		<path class="st5" d="M206.8,215.4c-0.5-0.2-1-0.3-1.5-0.1c-0.2,0.1-0.5,0.2-0.7,0.4c0.3-2.2-1.3-4.4-3.1-4.1
			c-1.3,0.2-1.9,1.5-1.9,3.1c-0.3-0.3-0.8-0.5-1.3-0.5c-1,0-1.7,0.7-2,1.6c-0.9-0.3-1.3-0.1-1.8,0.3c-0.8,0.6-1.7,0-2.3-0.4
			c-1.7-1.2-4.2-1-5.7,1.3c-0.6,1-0.7,1.4-2.1,2.7c0.6-0.2,1.6-1.1,2.2-2c0.3-0.5,0.8-1,1.5-1.5c1.6-1.1,3.4-0.6,4.6,0.5
			c0.7,0.7,1.6,0.4,2.2,0c0.3-0.2,0.7-0.3,1.2-0.1c0,0.1,0,0.2,0,0.3c-0.1,1.2,0.6,2.5,1.7,2.5c0.9,0,1.2-1.4,0.9-2.2
			c-0.1-0.3-0.5-0.8-0.7-0.6c-0.2,0.4,0,0.5,0.1,0.7c0.2,0.4-0.1,1.2-0.7,1c-1.1-0.4-1-2.3-0.1-3.1c0.6-0.5,1.9-0.2,2.3,0.7
			c0.7,1.5,0.3,3.9-0.7,4.9c-2.1,2.1-4.4,0.1-5.7-1.2c-1.2-1.2-2.3-2.6-3.8-2.8c-1-0.1-2,0.8-2.8,1.9c-0.7,0.9-1.7,1.7-2.8,1.7
			c0.8,0.6,2.4-0.7,3.2-1.8c1.5-1.9,3.4-1.2,4.6,0.2c0.8,0.9,2.7,3.7,5.1,3.7c1.6,0,3.4-1.3,3.8-3.8c0.1-0.6,0.1-1.2,0-1.9
			c0.3,0.1,0.6,0.2,0.9,0.1c0.9-0.2,1.1-1.7,0.7-2.3c-0.1-0.2-0.6-0.7-0.7-0.4c-0.2,0.5,0.1,0.5,0.2,0.7c0.3,0.4,0,1.2-0.5,1.2
			c-1.1-0.2-1.3-2.3-0.4-3.2c0.6-0.7,1.9-0.6,2.5,0.3c0.6,0.8,0.8,1.9,0.6,3.4c-0.7,1.1-1.1,2.6-1.8,3.8c-2.9,5.2-6.5,4.9-9.2,1.7
			c-1.4-1.7-3.4-5.2-5.3-2.9c-1.4,1.7-3.1,2.6-4.8,1.6c0.5,0.5,1,0.8,1.7,0.7c1.1,0,1.9-0.6,2.7-1.2c1.9-2.4,3.2-0.6,4.2,0.9
			c3.9,5.7,8.4,4.4,10.6,0.7c0.9-1.5,1.4-2.8,2-4.2c0.5-1.2,1.7-1.9,2.7-1.3V215.4z M206.8,221v0.7c-0.1,0-0.3,0-0.4,0
			c-0.4,0.6-1.1,1.2-1.9,1.2c-0.7,0.1-0.6-0.3-1.4,0.9c-1,1-1,1.6-4.9,1.5c3.3-0.4,3.7-1.1,4.5-2.1c1-1.2,0.7-1.3,1.4-1
			c0.8,0,1.4-0.3,1.6-0.7c0,0,0,0,0,0c-1.4-0.8-0.9-3.1,0.1-3.3c0.2-0.1,0.6,0,0.6,0.3c0.1,0.3-0.3,0.5-0.5,0.5
			c-0.4,0-0.5,1-0.3,1.4C206.1,220.9,206.5,221.1,206.8,221"/>
		<rect x="-188.3" y="-379.9" class="st6" width="702.7" height="993.8"/>
		<g class="st7">
			<g>
				<path class="st2" d="M208.2,217.4c0-2.6,0.9-4.2,2.1-4.2c1.2,0,2.1,1.6,2.1,4.2c0,2.7-0.9,4.3-2.1,4.3
					C209,221.7,208.2,220.1,208.2,217.4z M211.6,217.4c0-2.1-0.5-3.3-1.4-3.3c-0.8,0-1.4,1.2-1.4,3.3c0,2.2,0.5,3.4,1.4,3.4
					C211.1,220.8,211.6,219.6,211.6,217.4z M209.9,221.6l0.7-0.1c0.2,0.8,0.6,1.2,1.2,1.2c0.2,0,0.3,0,0.4-0.1l0.1,0.8
					c-0.2,0.1-0.4,0.2-0.6,0.2C210.8,223.6,210.2,222.7,209.9,221.6z"/>
				<path class="st2" d="M215.2,220.7h1.3v-6.4h-1.3v-0.9h3.4v0.9h-1.3v6.4h1.3v0.9h-3.4V220.7z"/>
				<path class="st2" d="M221.5,220.9l3-6.7h-2.7v-0.9h3.6v0.6l-3,6.7h3.1v0.9h-3.9V220.9z"/>
				<path class="st2" d="M228.2,213.4h0.7v3.4h2.2v-3.4h0.7v8.2h-0.7v-3.8h-2.2v3.8h-0.7V213.4z"/>
				<path class="st2" d="M234.9,220.7h1.3v-6.4h-1.3v-0.9h3.4v0.9H237v6.4h1.3v0.9h-3.4V220.7z"/>
			</g>
		</g>
		<line class="st11" x1="206.8" y1="213.1" x2="206.8" y2="222.9"/>
		<line class="st11" x1="213.7" y1="213.1" x2="213.7" y2="222.9"/>
		<line class="st11" x1="220.1" y1="213.1" x2="220.1" y2="222.9"/>
		<line class="st11" x1="226.8" y1="213.1" x2="226.8" y2="222.9"/>
		<line class="st11" x1="233.4" y1="213.1" x2="233.4" y2="222.9"/>
		<rect x="-188.3" y="-379.9" class="st6" width="702.7" height="993.8"/>
	</g>
</g>
</svg>
